<svg xmlns="http://www.w3.org/2000/svg" width="96" height="80" style="fill: none"   viewBox="0 0 96 80">
<path style="fill: #D9D9D9"  d="M80.9,34.1l-1.4-4.2c-0.2-0.7-0.7-1.2-1.4-1.4l-4.2-1.4c-3.9-1.3-3.9-6.9,0-8.2l4.2-1.4
	c0.7-0.2,1.2-0.7,1.4-1.4l1.4-4.2c0,0,0-0.1,0-0.1C80.6,8,77.4,5,73.5,5h-55C14.4,5,11,8.4,11,12.5v25.9c0.3,0.4,0.6,0.8,0.7,1.3
	l1,3.1c0.1,0.2,0.3,0.4,0.5,0.5l3.1,1c3.6,1.2,3.6,6.3,0,7.5l-3.1,1c-0.2,0.1-0.4,0.3-0.5,0.5l-1,3.1c-0.2,0.5-0.4,1-0.7,1.3v9.9
	c0,4.1,3.4,7.5,7.5,7.5h55c2.4,0,4.7-1.2,6.1-3.2l-1.2-0.4c-3.3-1.1-3.3-5.7,0-6.8l1.6-0.5l0.5-1.6c0.1-0.3,0.2-0.6,0.4-0.9V34.3
	C81,34.2,80.9,34.1,80.9,34.1z M28.5,15c4.1,0,7.5,3.4,7.5,7.5S32.6,30,28.5,30S21,26.6,21,22.5S24.4,15,28.5,15z M70,65H21.6
	c-1.9,0-3.1-2.1-2.2-3.8l9-15.3c0,0,0-0.1,0-0.1c0.7-1.2,2.3-1.5,3.5-0.8l0,0l9.5,6.1c1.1,0.7,2.6,0.4,3.4-0.7l13.3-19
	c1.2-1.7,3.8-1.3,4.4,0.6l9.8,29.5c0.1,0.3,0.1,0.5,0.1,0.8C72.5,63.9,71.4,65,70,65z" />
<path style="fill: #B3B3B3" d="M82.4,28.9c-0.5-1.6-1.7-2.8-3.3-3.3l-4.2-1.4c-1.2-0.4-1.2-2.1,0-2.5l4.2-1.4c1.6-0.5,2.8-1.7,3.3-3.3l1.4-4.2
	c0.4-1.2,2.1-1.2,2.5,0l1.4,4.2c0.5,1.6,1.7,2.8,3.3,3.3l4.2,1.4c1.2,0.4,1.2,2.1,0,2.5l-4.2,1.4c-1.6,0.5-2.8,1.7-3.3,3.3l-1.4,4.2
	c-0.4,1.2-2.1,1.2-2.5,0C83.8,33.1,82.4,28.9,82.4,28.9z M6.1,52.3c-0.4-1.1-1.3-2-2.4-2.4l-3.1-1c-0.9-0.3-0.9-1.5,0-1.8l3.1-1
	c1.1-0.4,2-1.3,2.4-2.4l1-3.1c0.3-0.9,1.5-0.9,1.8,0l1,3.1c0.4,1.1,1.3,2,2.4,2.4l3.1,1c0.9,0.3,0.9,1.5,0,1.8l-3.1,1
	c-1.1,0.4-2,1.3-2.4,2.4l-1,3.1c-0.3,0.9-1.5,0.9-1.8,0L6.1,52.3z M82.8,70.7c-0.2-0.7-0.8-1.3-1.5-1.5l-1.9-0.6
	c-0.5-0.2-0.5-0.9,0-1.1l1.9-0.6c0.7-0.2,1.3-0.8,1.5-1.5l0.6-1.9c0.2-0.5,0.9-0.5,1.1,0l0.6,1.9c0.2,0.7,0.8,1.3,1.5,1.5l1.9,0.6
	c0.5,0.2,0.5,0.9,0,1.1l-1.9,0.6c-0.7,0.2-1.3,0.8-1.5,1.5l-0.6,1.9c-0.2,0.5-0.9,0.5-1.1,0C83.4,72.6,82.8,70.7,82.8,70.7z"   /></svg>