<svg version="1.1"  xmlns="http://www.w3.org/2000/svg" 
	 viewBox="0 0 42 42" width="42" height="42" >

<circle  cx="21" cy="21" r="21"/>
<path  class="st1" d="M42,21C42,9.4,32.6,0,21,0S0,9.4,0,21c0,5.5,2.1,10.5,5.6,14.2c3.4-0.9,6.7-1.7,9.7-2.4c0.6-0.2,0.9-0.4,1-1.1
	c0.1-1.3,0.4-2.4,0.6-3.7c0-0.3,0-0.6-0.1-0.9c-0.3-1-0.7-2-1-2.9c-0.1,0.1-0.1,0.5-0.3,0.6c-0.2,0-0.5-0.1-0.7-0.5
	c-0.6-1.5-1.1-2.8-1.6-4.4c-0.1-0.3,0-1.1,0.5-1.3c0.4-0.1,0.8,0.3,1.1,0.3c0-1.7-0.1-3.6-0.1-5.5c0-1.4-0.5-1.6-0.6-2
	c0.7,0,1.8-0.9,2.5-1.7c1.2-1.4,1.9-2,4.4-2c2,0,3.9-0.3,6-0.8c0,0.7-0.2,1.5-0.7,2.5c0.7,0.2,1.8,0.4,3,0.3c-0.6,0.3-1,1-1.6,1.3
	c0.8,0.3,1.5,0.4,2.2,0.7c-0.3,0.2-0.6,0.7-0.9,0.9c0.2,0.3,0.4,0.7,0.6,1.1c-0.4,0-0.6-0.2-1.2-0.2c0.1,0.9-0.3,1.3,0.6,2.5
	c-0.9,0.7-0.9,1.6-0.9,2.5c1.2-0.5,1.4,0.1,1.4,1c-0.1,1.8-0.7,3.7-1.9,4.9c-0.2,0.2-0.6,0.2-0.6-0.5c-0.2,2.3-1.2,4.2-2.7,5.8
	c-1.9,1.9-3.6,1.9-5.5,0c-0.1-0.1-0.3-0.3-0.4-0.4c-0.1,0.8-0.2,1.5-0.1,2c0.1,0.5,0.5,0.8,1,1c0.8,0.4,0.9,0.6,2.7,0.6
	c1.8,0,3.4,0,3.7,0c1.4,0.3,3,1.5,4.4,2.5c0.9,0.6,2.3,1.4,3.6,2.1C38.7,34,42,27.9,42,21z"/>
</svg>
