<svg version="1.1"  xmlns="http://www.w3.org/2000/svg" 	 viewBox="0 0 79 40" width="79" height="40" >

<path  d="M58.9,19.5c-2.4-2.8-6.9-2.8-9.3-2.6c0.6-5.6-1.3-9.3-3.1-11.6C43.9,2.1,39.7,0,35.5,0c-5.4,0-9.5,3-11,4.4
	c-2.1-1-8.3-3.1-12.7,1.4c-3.9,4-3.5,9.1-3.1,11.5C8.8,18.2,9.1,18,9.1,18s1.6-0.3,2.2-0.3c-0.4-1.4-1.3-6.5,2.2-10.2
	c4.1-4.2,10.6-0.7,10.7-0.6l0.8,0.4l0.7-0.7c0.1-0.1,4.1-4.3,9.9-4.3c2.7,0,6.6,1.2,9.2,4.5c2.3,2.9,3.1,6.8,2.3,11.2l-0.3,1.8
	l1.7-0.4c2-0.4,7.4-0.7,9.1,2.1h2.8C60.1,20.8,59.2,19.7,58.9,19.5z"/>
<rect  fill="currentColor" x="24.1" y="17.7" width="2.4" height="21.6"/>
<path  fill="currentColor" d="M77,17.7v7.9c-1.4-1.5-3.4-2.4-5.6-2.4c-4.4,0-8,3.7-8,8.2c0,4.6,3.6,8.2,8,8.2c2.2,0,4.2-0.9,5.6-2.4v2h2.4V17.7H77z
	 M71.4,37.2c-3.1,0-5.6-2.6-5.6-5.8s2.5-5.8,5.6-5.8s5.6,2.6,5.6,5.8S74.4,37.2,71.4,37.2z"/>
<path  fill="currentColor" d="M37.3,23.2c-4.4,0-8,3.7-8,8.2c0,4.6,3.6,8.2,8,8.2s8-3.7,8-8.2C45.3,26.9,41.7,23.2,37.3,23.2z M37.3,37.2
	c-3.1,0-5.6-2.6-5.6-5.8s2.5-5.8,5.6-5.8c3.1,0,5.6,2.6,5.6,5.8S40.4,37.2,37.3,37.2z"/>
<path  fill="currentColor" d="M58.5,33.5c0,0.1-0.2,3.2-4.2,3.2s-4.2-3-4.2-3v-9.9h-2.4v9.9c0,1.8,1.6,5.4,6.6,5.4s6.6-3.8,6.6-5.6v-9.8h-2.4V33.5z"/>
<path  fill="currentColor" d="M8.1,18C5.1,18.8,0,21,0,28.7C0,36,5.9,39,8.3,39h12.4v-2.4H8.3c-1.2,0-5.9-2-5.9-7.9c0-7.6,7.7-10.8,13.5-6.6l1.7-1.7
	c-1.7-1.8-4.6-2.5-6.3-2.7C10.4,17.6,8.9,17.8,8.1,18z"/>
</svg>
