<svg xmlns="http://www.w3.org/2000/svg" width="145" height="145" viewBox="0 0 145 145">
<path style="fill: #fff" d="M18.125 12.083C18.125 5.41 23.535 0 30.208 0h61.454c3.204 0 6.278 1.273 8.544 3.54l23.13 23.13a12.084 12.084 0 0 1 3.539 8.543v97.704c0 6.673-5.41 12.083-12.083 12.083H30.208c-6.673 0-12.083-5.41-12.083-12.083V12.083Z"/>
<path style="fill: #D7D7D7" fill-rule="evenodd" d="M30.208 0c-6.673 0-12.083 5.41-12.083 12.083v120.834c0 6.673 5.41 12.083 12.083 12.083h84.584c6.673 0 12.083-5.41 12.083-12.083V35.213c0-3.204-1.273-6.278-3.539-8.544l-23.13-23.13A12.084 12.084 0 0 0 91.662 0H30.208Z" clip-rule="evenodd"/>
<path style="fill: #fff" fill-rule="evenodd" d="M91.662 3.02H30.208a9.062 9.062 0 0 0-9.062 9.063v120.834a9.062 9.062 0 0 0 9.062 9.062h84.584a9.062 9.062 0 0 0 9.062-9.062V35.214a9.064 9.064 0 0 0-2.654-6.409L98.07 5.675a9.063 9.063 0 0 0-6.408-2.654Z" clip-rule="evenodd"/>
<path style="fill: #D7D7D7" d="M96.667 1.085a12.084 12.084 0 0 1 3.539 2.454l23.13 23.13a12.089 12.089 0 0 1 2.454 3.54h-20.061a9.062 9.062 0 0 1-9.062-9.063V1.086Z"/>
<path style="fill: #F26E4F" fill-rule="evenodd" d="M93.897 48.333H51.104c-4.115 0-5.607.429-7.111 1.233a8.388 8.388 0 0 0-3.49 3.49c-.804 1.504-1.232 2.996-1.232 7.11v42.793c0 4.114.428 5.606 1.233 7.111a8.391 8.391 0 0 0 3.489 3.489c1.504.804 2.996 1.233 7.11 1.233h42.794c4.114 0 5.606-.429 7.11-1.233a8.39 8.39 0 0 0 3.489-3.489c.805-1.505 1.233-2.997 1.233-7.111V60.166c0-4.114-.428-5.606-1.233-7.11a8.386 8.386 0 0 0-3.489-3.49c-1.504-.804-2.996-1.233-7.11-1.233ZM72.31 66.343H62.245v30.324h6.048V86.052h3.933c1.861 0 3.553-.198 5.075-.593 1.523-.394 2.82-1 3.891-1.818 1.071-.846 1.889-1.917 2.453-3.214.592-1.297.888-2.834.888-4.61 0-3.327-1.071-5.738-3.214-7.232-2.115-1.494-5.117-2.241-9.008-2.241Zm-4.018 14.718V71.42h4.018c2.03 0 3.552.38 4.567 1.142 1.043.733 1.565 1.903 1.565 3.51 0 1.832-.55 3.13-1.65 3.89-1.07.734-2.593 1.1-4.567 1.1h-3.933Z" clip-rule="evenodd"/>
</svg>