<svg xmlns="http://www.w3.org/2000/svg" width="145" height="145" viewBox="0 0 145 145" fill="none">
<path style="fill: #fff" d="M18.125 12.083C18.125 5.41 23.535 0 30.208 0h61.454c3.204 0 6.278 1.273 8.544 3.54l23.13 23.13a12.084 12.084 0 0 1 3.539 8.543v97.704c0 6.673-5.41 12.083-12.083 12.083H30.208c-6.673 0-12.083-5.41-12.083-12.083V12.083Z"/>
<path style="fill: #D7D7D7"  d="M30.208 0c-6.673 0-12.083 5.41-12.083 12.083v120.834c0 6.673 5.41 12.083 12.083 12.083h84.584c6.673 0 12.083-5.41 12.083-12.083V35.213c0-3.204-1.273-6.278-3.539-8.544l-23.13-23.13A12.084 12.084 0 0 0 91.662 0H30.208Z" />
<path style="fill: #fff"  d="M91.661 3.02H30.208a9.062 9.062 0 0 0-9.063 9.063v120.833a9.063 9.063 0 0 0 9.063 9.063h84.583a9.063 9.063 0 0 0 9.063-9.063V35.213a9.061 9.061 0 0 0-2.655-6.408l-23.13-23.13a9.062 9.062 0 0 0-6.408-2.654Z" />
<path style="fill: #D7D7D7" d="M96.667 1.085a12.079 12.079 0 0 1 3.539 2.454l23.13 23.13a12.09 12.09 0 0 1 2.454 3.539h-20.061a9.062 9.062 0 0 1-9.062-9.063V1.085Z"/>
<path style="fill: #9F9F9F"  d="M45.313 57.395a3.02 3.02 0 0 0 0 6.042h54.375a3.021 3.021 0 0 0 0-6.041H45.313Zm0 15.105a3.02 3.02 0 0 0 0 6.042h54.375a3.021 3.021 0 0 0 0-6.042H45.313Zm-3.021 18.124a3.02 3.02 0 0 1 3.02-3.02h54.376a3.021 3.021 0 1 1 0 6.041H45.313a3.02 3.02 0 0 1-3.021-3.02Zm3.02 12.084a3.02 3.02 0 1 0 0 6.042h36.25a3.021 3.021 0 0 0 0-6.042h-36.25Z" />
</svg>

