<svg xmlns="http://www.w3.org/2000/svg" width="145" height="145" viewBox="0 0 145 145">
<path style="fill: #fff" d="M18.125 12.083C18.125 5.41 23.535 0 30.208 0h61.454c3.204 0 6.278 1.273 8.544 3.54l23.13 23.13a12.084 12.084 0 0 1 3.539 8.543v97.704c0 6.673-5.41 12.083-12.083 12.083H30.208c-6.673 0-12.083-5.41-12.083-12.083V12.083Z"/>
<path style="fill: #D7D7D7" fill-rule="evenodd" d="M30.208 0c-6.673 0-12.083 5.41-12.083 12.083v120.834c0 6.673 5.41 12.083 12.083 12.083h84.584c6.673 0 12.083-5.41 12.083-12.083V35.213c0-3.204-1.273-6.278-3.539-8.544l-23.13-23.13A12.084 12.084 0 0 0 91.662 0H30.208Z" />
<path style="fill: #fff" fill-rule="evenodd" d="M91.662 3.02H30.208a9.062 9.062 0 0 0-9.062 9.063v120.834a9.062 9.062 0 0 0 9.062 9.062h84.584a9.062 9.062 0 0 0 9.062-9.062V35.213a9.064 9.064 0 0 0-2.654-6.408L98.07 5.675a9.062 9.062 0 0 0-6.408-2.654Z" />
<path style="fill: #D7D7D7" d="M96.667 1.086a12.084 12.084 0 0 1 3.539 2.453l23.13 23.13a12.089 12.089 0 0 1 2.454 3.54h-20.061a9.062 9.062 0 0 1-9.062-9.063V1.086Z"/>
<path style="fill: #9F9F9F" d="M42.292 20.542a2.417 2.417 0 0 1 2.416-2.417h7.25a2.417 2.417 0 0 1 2.417 2.417v1.208a2.417 2.417 0 0 1-2.417 2.417h-7.25a2.417 2.417 0 0 1-2.416-2.417v-1.208ZM54.375 14.5a2.417 2.417 0 0 1 2.417-2.417h7.25a2.417 2.417 0 0 1 2.416 2.417v1.208a2.417 2.417 0 0 1-2.416 2.417h-7.25a2.417 2.417 0 0 1-2.417-2.417V14.5ZM42.292 8.458a2.417 2.417 0 0 1 2.416-2.416h7.25a2.417 2.417 0 0 1 2.417 2.416v1.209a2.417 2.417 0 0 1-2.417 2.416h-7.25a2.417 2.417 0 0 1-2.416-2.416V8.458ZM54.375 26.583a2.417 2.417 0 0 1 2.417-2.416h7.25a2.417 2.417 0 0 1 2.416 2.416v1.209a2.417 2.417 0 0 1-2.416 2.416h-7.25a2.417 2.417 0 0 1-2.417-2.416v-1.209ZM42.292 32.625a2.417 2.417 0 0 1 2.416-2.417h7.25a2.417 2.417 0 0 1 2.417 2.417v1.208a2.417 2.417 0 0 1-2.417 2.417h-7.25a2.417 2.417 0 0 1-2.416-2.417v-1.208ZM42.292 44.708a2.417 2.417 0 0 1 2.416-2.416h7.25a2.417 2.417 0 0 1 2.417 2.416v1.209a2.417 2.417 0 0 1-2.417 2.416h-7.25a2.417 2.417 0 0 1-2.416-2.416v-1.209ZM42.292 56.792a2.417 2.417 0 0 1 2.416-2.417h7.25a2.417 2.417 0 0 1 2.417 2.417V58a2.417 2.417 0 0 1-2.417 2.417h-7.25A2.417 2.417 0 0 1 42.292 58v-1.208ZM54.375 38.667a2.417 2.417 0 0 1 2.417-2.417h7.25a2.417 2.417 0 0 1 2.416 2.417v1.208a2.417 2.417 0 0 1-2.416 2.417h-7.25a2.417 2.417 0 0 1-2.417-2.417v-1.208ZM54.375 50.75a2.417 2.417 0 0 1 2.417-2.417h7.25a2.417 2.417 0 0 1 2.416 2.417v1.208a2.417 2.417 0 0 1-2.416 2.417h-7.25a2.417 2.417 0 0 1-2.417-2.417V50.75Z"/>
<path style="fill: #9F9F9F" fill-rule="evenodd" d="M46.823 63.438a4.531 4.531 0 0 0-4.531 4.53v21.147a4.531 4.531 0 0 0 4.53 4.53h15.105a4.531 4.531 0 0 0 4.531-4.53V67.969a4.531 4.531 0 0 0-4.53-4.531H46.822Zm3.927 6.041a2.417 2.417 0 0 0-2.417 2.417v1.208a2.417 2.417 0 0 0 2.417 2.417H58a2.417 2.417 0 0 0 2.417-2.417v-1.208A2.417 2.417 0 0 0 58 69.479h-7.25Z" />
<path style="fill: #9F9F9F" d="M68.1,129.9H55.2v-2.2l9.3-12.6h-9v-2.5h12.6v2.2l-9.3,12.6h9.3L68.1,129.9L68.1,129.9z M74,112.6v17.3H71	v-17.3C71,112.6,74,112.6,74,112.6z M77.7,112.6h5.7c2.1,0,3.7,0.4,4.9,1.3c1.2,0.8,1.7,2.2,1.7,4c0,1-0.2,1.9-0.5,2.6	c-0.3,0.7-0.8,1.3-1.4,1.8c-0.6,0.5-1.3,0.8-2.1,1c-0.8,0.2-1.7,0.3-2.8,0.3h-2.6v6.4h-2.9C77.7,129.9,77.7,112.6,77.7,112.6z	 M80.6,115.1v5.9h2.6c1.2,0,2.1-0.2,2.8-0.7c0.7-0.5,1-1.3,1-2.4c0-1-0.3-1.7-0.9-2.1c-0.6-0.5-1.5-0.7-2.7-0.7H80.6L80.6,115.1z"/>
</svg>


