<svg xmlns="http://www.w3.org/2000/svg" width="145" height="145" viewBox="0 0 145 145">
<path style="fill: #fff" d="M18.1,12.1C18.1,5.4,23.5,0,30.2,0h61.5c3.2,0,6.3,1.3,8.5,3.5l23.1,23.1c2.3,2.3,3.5,5.3,3.5,8.5v97.7	c0,6.7-5.4,12.1-12.1,12.1H30.2c-6.7,0-12.1-5.4-12.1-12.1V12.1z"/>
<path style="fill: #D7D7D7" d="M30.2,0c-6.7,0-12.1,5.4-12.1,12.1v120.8c0,6.7,5.4,12.1,12.1,12.1h84.6c6.7,0,12.1-5.4,12.1-12.1V35.2	c0-3.2-1.3-6.3-3.5-8.5L100.2,3.5C97.9,1.3,94.9,0,91.7,0H30.2z"/>
<path style="fill: #fff" d="M91.7,3H30.2c-5,0-9.1,4.1-9.1,9.1c0,0,0,0,0,0v120.8c0,5,4.1,9.1,9.1,9.1h84.6c5,0,9.1-4.1,9.1-9.1V35.2	c0-2.4-1-4.7-2.7-6.4L98.1,5.7C96.4,4,94.1,3,91.7,3L91.7,3z"/>
<path style="fill: #D7D7D7" d="M96.7,1.1c1.3,0.6,2.5,1.4,3.5,2.5l23.1,23.1c1,1,1.9,2.2,2.5,3.5h-20.1c-5,0-9.1-4.1-9.1-9.1c0,0,0,0,0,0	L96.7,1.1L96.7,1.1z"/>
<path style="fill: #47A3FF" d="M104.5,53.1c-0.8-1.5-2-2.7-3.5-3.5c-1.5-0.8-3-1.2-7.1-1.2h0H51.1c-4.1,0-5.6,0.4-7.1,1.2 c-1.5,0.8-2.7,2-3.5,3.5c-0.8,1.5-1.2,3-1.2,7.1V103c0,4.1,0.4,5.6,1.2,7.1c0.8,1.5,2,2.7,3.5,3.5c1.5,0.8,3,1.2,7.1,1.2h42.8 c4.1,0,5.6-0.4,7.1-1.2c1.5-0.8,2.7-2,3.5-3.5c0.8-1.5,1.2-3,1.2-7.1V60.2C105.7,56.1,105.3,54.6,104.5,53.1z"/>
<path style="fill: #fff" d="M55.9,72.1c3.9,0,7.1-3.2,7.1-7.1c0-3.9-3.2-7.1-7.1-7.1c0,0,0,0,0,0c-3.9,0-7.1,3.2-7.1,7.1	C48.8,68.9,52,72.1,55.9,72.1z"/>
<path style="fill: #fff" d="M88.2,74.2c-0.6-1.8-3.1-2.2-4.2-0.6l-12.6,18c-0.7,1-2.1,1.3-3.2,0.6l-9.1-5.8l0,0c-1.1-0.7-2.6-0.4-3.3,0.7 c0,0,0,0,0,0.1l-8.5,14.5c-0.9,1.6,0.2,3.6,2,3.6h46c1.3,0,2.4-1.1,2.4-2.4c0-0.3,0-0.5-0.1-0.8L88.2,74.2z"/>
</svg>


