<svg xmlns="http://www.w3.org/2000/svg" width="145" height="145" viewBox="0 0 145 145" fill="none">
<path style="fill: #D7D7D7" d="M30.2,0c-6.7,0-12.1,5.4-12.1,12.1v120.8c0,6.7,5.4,12.1,12.1,12.1h84.6c6.7,0,12.1-5.4,12.1-12.1V35.2
	c0-3.2-1.3-6.3-3.5-8.5L100.2,3.5C97.9,1.3,94.9,0,91.7,0H30.2z"/>
<path style="fill: #fff" d="M91.7,3H30.2c-5,0-9.1,4.1-9.1,9.1c0,0,0,0,0,0v120.8c0,5,4.1,9.1,9.1,9.1h84.6c5,0,9.1-4.1,9.1-9.1V35.2
	c0-2.4-1-4.7-2.7-6.4L98.1,5.7C96.4,4,94.1,3,91.7,3L91.7,3z"/>
<path style="fill: #D7D7D7" d="M96.7,1.1c1.3,0.6,2.5,1.4,3.5,2.5l23.1,23.1c1,1,1.9,2.2,2.5,3.5h-20.1c-5,0-9.1-4.1-9.1-9.1c0,0,0,0,0,0
	L96.7,1.1L96.7,1.1z"/>
<path style="fill: #B47AFF" d="M104.5,53.1c-0.8-1.5-2-2.7-3.5-3.5c-1.5-0.8-3-1.2-7.1-1.2H51.1c-4.1,0-5.6,0.4-7.1,1.2
	c-1.5,0.8-2.7,2-3.5,3.5c-0.8,1.5-1.2,3-1.2,7.1V103c0,4.1,0.4,5.6,1.2,7.1c0.8,1.5,2,2.7,3.5,3.5c1.5,0.8,3,1.2,7.1,1.2h6.6h0h36.2
	c4.1,0,5.6-0.4,7.1-1.2c1.5-0.8,2.7-2,3.5-3.5c0.8-1.5,1.2-3,1.2-7.1V60.2C105.7,56.1,105.3,54.6,104.5,53.1z M87.3,55.7h6.6
	c1.6,0,2.6,0.1,3.1,0.2c0.2,0,0.3,0.1,0.5,0.2c0.2,0.1,0.3,0.2,0.5,0.5c0.1,0.2,0.1,0.3,0.2,0.5c0.1,0.6,0.2,1.6,0.2,3.1v2.9H87.3h0
	V55.7z M57.7,107.4h-6.6c-1.6,0-2.6-0.1-3.1-0.2c-0.2,0-0.3-0.1-0.5-0.2c-0.2-0.1-0.3-0.2-0.5-0.5c-0.1-0.2-0.2-0.3-0.2-0.5
	c-0.1-0.6-0.2-1.6-0.2-3.1V100h11.1V107.4z M57.7,85.3v7.4H46.7v-7.4H57.7L57.7,85.3L57.7,85.3z M57.7,77.9H46.7v-7.4h11.1h0V77.9z
	 M57.7,63.1H46.7v-2.9c0-1.6,0.1-2.6,0.2-3.1c0-0.2,0.1-0.3,0.2-0.5c0.1-0.2,0.2-0.3,0.5-0.5c0.2-0.1,0.3-0.1,0.5-0.2
	c0.6-0.1,1.6-0.2,3.1-0.2h6.6V63.1z M98.3,103c0,1.6-0.1,2.6-0.2,3.1c0,0.2-0.1,0.3-0.2,0.5c-0.1,0.2-0.3,0.4-0.5,0.5
	c-0.2,0.1-0.3,0.2-0.5,0.2c-0.6,0.1-1.6,0.2-3.1,0.2h-6.6V100h11.1V103z M98.3,92.6H87.3v-7.4h11.1V92.6z M98.3,77.9H87.3v-7.4h11.1
	V77.9z"/></svg>


