<svg xmlns="http://www.w3.org/2000/svg" width="145" height="145" viewBox="0 0 145 145" fill="none">
<path style="fill: #F4DC49" d="M0,12.1C0,5.4,5.4,0,12.1,0h38.8c4,0,7.8,2,10.1,5.4l4.9,7.4c2.2,3.4,6,5.4,10.1,5.4h57
	c6.7,0,12.1,5.4,12.1,12.1v78.5c0,6.7-5.4,12.1-12.1,12.1H12.1c-6.7,0-12.1-5.4-12.1-12.1V12.1z"/>
<path style="fill: #F4DC49" d="M50.9,3H12.1C7.1,3,3,7.1,3,12.1v96.7c0,5,4.1,9.1,9.1,9.1h120.8c5,0,9.1-4.1,9.1-9.1V30.2c0-5-4.1-9.1-9.1-9.1
	c0,0,0,0,0,0h-57c-5.1,0-9.8-2.5-12.6-6.7l-4.9-7.4C56.8,4.5,54,3,50.9,3z M12.1,0C5.4,0,0,5.4,0,12.1v96.7
	c0,6.7,5.4,12.1,12.1,12.1h120.8c6.7,0,12.1-5.4,12.1-12.1V30.2c0-6.7-5.4-12.1-12.1-12.1h-57c-4,0-7.8-2-10.1-5.4L61,5.4
	C58.7,2,55,0,50.9,0H12.1z"/>
<path style="fill: #FDEFB2;" d="M50.9,3H12.1C7.1,3,3,7.1,3,12.1v96.7c0,5,4.1,9.1,9.1,9.1h120.8c5,0,9.1-4.1,9.1-9.1V30.2c0-5-4.1-9.1-9.1-9.1
	c0,0,0,0,0,0h-57c-5.1,0-9.8-2.5-12.6-6.7l-4.9-7.4C56.8,4.5,54,3,50.9,3L50.9,3z"/>
<path style="fill: #EDC100;" d="M72.5,48.3c-1.7,0-3,1.3-3,3v18h-18c-1.7,0-3,1.3-3,3s1.3,3,3,3l0,0h18v18c0,1.7,1.3,3,3,3s3-1.3,3-3l0,0v-18
	h18c1.7,0,3-1.3,3-3s-1.3-3-3-3l0,0h-18v-18C75.5,49.6,74.2,48.3,72.5,48.3z"/>
</svg>


