<svg width="16" height="16" viewBox="0 0 16 16" xmlns="http://www.w3.org/2000/svg">
<path fill="currentColor" d="M8,0C3.6,0,0,3.6,0,8s3.6,8,8,8s8-3.6,8-8S12.4,0,8,0z M13.7,4.9h-2.4c-0.3-1.1-0.7-2.1-1.2-3
	C11.6,2.4,12.9,3.5,13.7,4.9z M14.5,8c0,0.6-0.1,1.1-0.2,1.6h-2.7c0.1-0.5,0.1-1.1,0.1-1.6c0-0.6,0-1.1-0.1-1.6h2.7
	C14.4,6.9,14.5,7.4,14.5,8z M8,14.5c-0.7-1-1.3-2.1-1.6-3.4h3.4C9.4,12.4,8.8,13.5,8,14.5C8.1,14.5,8.1,14.5,8,14.5z M6.1,9.6
	C6,9.1,5.9,8.6,5.9,8c0-0.6,0-1.1,0.1-1.6h4c0.1,0.5,0.1,1.1,0.1,1.6c0,0.6,0,1.1-0.1,1.6H6.1z M1.5,8c0-0.6,0.1-1.1,0.2-1.6h2.8
	C4.5,6.9,4.4,7.4,4.4,8c0,0.6,0,1.1,0.1,1.6H1.7C1.6,9.1,1.5,8.6,1.5,8z M8,1.5C8,1.5,8.1,1.5,8,1.5c0.8,1,1.4,2.1,1.7,3.4H6.4
	C6.7,3.6,7.3,2.5,8,1.5z M6,1.8c-0.5,0.9-0.9,2-1.2,3H2.3C3.1,3.4,4.4,2.3,6,1.8z M2.3,11.1h2.5c0.3,1.1,0.7,2.1,1.2,3
	C4.4,13.7,3.1,12.6,2.3,11.1z M10.1,14.1c0.5-0.9,0.9-1.9,1.2-3h2.4C12.9,12.5,11.6,13.6,10.1,14.1z"></path>
</svg>
