<svg  width="16" height="16"  viewBox="0 0 16 16">
<path fill="currentColor"  d="M4.5 8.656c1.556 0 2.723-1.66 2.723-3.593S6.219 2 4.5 2C2.781 2 1.777 3.13 1.777 5.063c0 1.934 1.167 3.593 2.723 3.593zM4.5 14c-2.317 0-3.764-.677-4.34-1.144a.474.474 0 0 1-.16-.392C0 10.989 1.775 10 4.498 10s4.502.99 4.502 2.463a.474.474 0 0 1-.158.394C8.264 13.322 6.817 14 4.5 14zm6.246-.713c2.11.142 4.146-.18 5.11-.791a.306.306 0 0 0 .141-.283c0-.93-1.427-2.09-3.997-2.09-.905 0-1.913.084-2.51.257.772.567 1.256 1.58 1.256 2.906zM12 8.761c-1.306 0-2.236-1.437-2.236-3.111 0-1.674.793-2.653 2.236-2.653 1.442 0 2.234.979 2.234 2.653S13.307 8.76 12 8.76z"></path>
</svg>