<svg xmlns="http://www.w3.org/2000/svg" width="16" height="16" role="none" viewBox="0 0 16 16">
<path fill="currentColor" d="M5.809 3.243c.094-.392.268-1.123.432-1.243l3.551-.016c.167.136.346.877.443 1.275.054.23.116.484.194.741H5.611c.083-.269.144-.53.198-.757zM12.583 4c-.151-.171-.309-.814-.404-1.21C11.911 1.679 11.505 0 9.817 0H6.241c-1.716 0-2.13 1.741-2.377 2.78-.092.385-.262 1.103-.406 1.22H1v2h2v7.985C3 15.098 3.887 16 5 16h5.985A2.015 2.015 0 0 0 13 13.985V6h2V4h-2.417z" ></path>
</svg>
