<svg  width="24" height="24" role="none" viewBox="0 0 24 24">
<path fill="currentColor" d="M12,0C5.4,0,0,5.4,0,12c0,6.6,5.4,12,12,12c6.6,0,12-5.4,12-12C24,5.4,18.6,0,12,0z M13.6,14.7l-2.3,2.3
	c-1.2,1.2-3.1,1.2-4.2,0c-1.2-1.2-1.2-3.1,0-4.2l0.5-0.5c0.3-0.3,0.8-0.3,1.1,0c0.3,0.3,0.3,0.8,0,1.1c0,0,0,0,0,0l-0.5,0.5
	c-0.6,0.6-0.6,1.5,0,2.1c0.6,0.6,1.5,0.6,2.1,0l2.3-2.3c0.5-0.5,0.6-1.3,0.2-1.9c-0.2-0.3-0.2-0.8,0.2-1c0.3-0.2,0.8-0.2,1,0.2
	c0,0,0,0,0,0C14.8,12,14.6,13.6,13.6,14.7z M16.9,11.3l-0.5,0.5c-0.3,0.3-0.8,0.3-1.1,0s-0.3-0.8,0-1.1l0.5-0.5
	c0.6-0.6,0.6-1.5,0-2.1s-1.5-0.6-2.1,0c0,0,0,0,0,0l-2.3,2.3c-0.5,0.5-0.6,1.3-0.2,1.9h0c0.2,0.3,0.1,0.8-0.2,1
	c-0.3,0.2-0.8,0.1-1-0.2c-0.8-1.2-0.7-2.8,0.3-3.9l2.3-2.3c1.2-1.2,3.1-1.2,4.2,0C18.1,8.3,18.1,10.2,16.9,11.3z"/>
</svg>